<?xml version="1.0" encoding="utf-8"?>
<!-- Generator: Adobe Illustrator 25.2.1, SVG Export Plug-In . SVG Version: 6.00 Build 0)  -->
<svg version="1.1" id="Layer_1" xmlns="http://www.w3.org/2000/svg" xmlns:xlink="http://www.w3.org/1999/xlink" x="0px" y="0px"
	 viewBox="0 0 243 208.1" style="enable-background:new 0 0 243 208.1;" xml:space="preserve">
<style type="text/css">
	.st0{fill:#6459A7;}
</style>
<g id="Layer_1-2">
	<path class="st0" d="M140.2,3.6l-0.7-1c0,0,0,0-0.1,0c-1-1-2.3-1.6-3.8-1.6c-1.7,0-3.3,0.8-4.2,2.2L77.7,58.3
		c-1.1,1.3-2.6,2.1-4.2,2.5c-1.6-0.4-3.1-1.2-4.2-2.5L15.5,3.2C14.5,1.8,13,1,11.3,1C9.9,1,8.5,1.6,7.5,2.6c0,0,0,0-0.1,0l-0.7,1
		C6.2,4.5,5.9,5.6,6,6.6L0,142.3c-0.1,1.8,1.2,3.3,3,3.4c0,0,0.1,0,0.1,0h28c1.7,0,3.1-1.5,3.1-3.2L36.5,81c0.1-3,3.3-4.3,5.5-1.9
		l25.2,25.3c1.8,1.7,3.6,3,6.1,3h0.2c2.5,0,4.4-1.4,6.1-3l25.2-25.3c2.2-2.4,5.5-1.1,5.6,1.9l2.2,61.5c0,1.7,1.4,3.2,3.1,3.2h28.1
		c1.8-0.1,3.2-1.6,3.1-3.3c0,0,0-0.1,0-0.1L141.1,6.6C141.1,5.6,140.8,4.5,140.2,3.6z"/>
	<path class="st0" d="M193.7,25.5h34.7c3-0.2,5.3-2.6,5.3-5.6V5.6c0-3.1-2.5-5.5-5.6-5.6h-59.2c-3.1,0-5.5,2.5-5.5,5.5v95.1
		c0,3.1,2.5,5.6,5.6,5.6l0,0h59.2c3.1,0,5.6-2.5,5.6-5.5v0V87.5c0-3.1-2.5-5.5-5.5-5.5h-34.4c-1.5,0-2.7-1.2-2.7-2.6c0,0,0,0,0,0
		V67.5c0-1.5,1.2-2.7,2.7-2.7h27.7c1.9-0.1,3.4-1.7,3.4-3.6V45.2c0-1.9-1.5-3.5-3.5-3.6h-27.5c-1.5,0-2.7-1.2-2.7-2.6c0,0,0,0,0,0
		V28.1C191,26.7,192.2,25.5,193.7,25.5C193.7,25.5,193.7,25.5,193.7,25.5z"/>
	<path class="st0" d="M233.6,119.8c0-0.8-0.6-1.4-1.4-1.5c-0.3,0-0.6,0.1-0.9,0.3c-2.6,1.9-5.8,2.9-9,2.8h-42.5
		c-9.1,0-16.5,7.4-16.5,16.5c0,0,0,0,0,0v9.4c0,0.8,0.6,1.4,1.4,1.4c0.3,0,0.6-0.1,0.8-0.3c2.6-1.9,5.8-2.9,9-2.8h42.5
		c9.1,0,16.5-7.4,16.5-16.5c0,0,0,0,0,0L233.6,119.8z"/>
	<path class="st0" d="M235.6,190.6c0.1,0,0.2,0.1,0.2,0.2c0,0,0,0,0,0v0.6c0,0.1-0.1,0.3-0.2,0.3c0,0,0,0,0,0h-1.4v4.6
		c0,0.1-0.1,0.2-0.2,0.2c0,0,0,0,0,0h-0.6c-0.1,0-0.2-0.1-0.2-0.2c0,0,0,0,0,0v-4.6h-1.4c-0.1,0-0.2-0.1-0.2-0.2c0,0,0,0,0,0v-0.6
		c0-0.1,0.1-0.2,0.2-0.2c0,0,0,0,0,0H235.6z M242.8,190.6c0.1,0,0.2,0.1,0.2,0.2c0,0,0,0,0,0v5.4c0,0.1-0.1,0.2-0.2,0.2c0,0,0,0,0,0
		h-0.6c-0.1,0-0.2-0.1-0.2-0.2c0,0,0,0,0,0v-3.3l-2,3.4c0,0.1-0.1,0.2-0.2,0.2l0,0c-0.1,0-0.2-0.1-0.2-0.2l-1.9-3.4v3.3
		c0,0.1-0.1,0.2-0.2,0.2c0,0,0,0,0,0h-0.6c-0.1,0-0.2-0.1-0.2-0.2c0,0,0,0,0,0v-5.4c0-0.1,0.1-0.2,0.2-0.2c0,0,0,0,0,0h0.6
		c0.1,0,0.2,0,0.2,0.1l2.1,3.8l2.1-3.8c0.1-0.1,0.1-0.1,0.2-0.1H242.8z"/>
	<path class="st0" d="M60.8,185c-1.6-0.4-2.4-0.6-2.4-1.3s0.5-0.9,1.4-0.9c1.2,0.2,2.4,0.6,3.5,1.1c0.3,0.2,0.8,0.1,1-0.2
		c0,0,0,0,0,0l2.1-3c0.3-0.4,0.1-0.8-0.4-1.1c-1.8-1.2-4-1.8-6.2-1.7c-4.7,0.1-7,2.7-6.9,5.5c0,2.6,2,5,5.4,5.9c2.5,0.6,3,0.9,3,1.5
		s-0.5,0.9-1.4,0.9c-1.5-0.3-2.9-0.8-4.2-1.6c-0.5-0.2-0.8-0.1-1.2,0.4l-1.9,2.9c-0.1,0.3,0,0.7,0.2,0.9c2.1,1.4,4.5,2.2,7,2.3
		c4.6,0,7.5-2.6,7.5-5.7C67.2,187.7,64.2,185.8,60.8,185z"/>
	<path class="st0" d="M77.4,185c-1.6-0.4-2.4-0.6-2.4-1.3s0.5-0.9,1.4-0.9c1.2,0.2,2.4,0.6,3.4,1.1c0.3,0.2,0.8,0.1,1-0.2
		c0,0,0,0,0,0l2.1-3c0.3-0.4,0.1-0.8-0.4-1.1c-1.8-1.2-4-1.8-6.2-1.7c-4.7,0.1-7,2.7-6.9,5.5c0,2.6,2,5,5.3,5.9c2.4,0.6,3,0.9,3,1.5
		s-0.5,0.9-1.4,0.9c-1.5-0.3-2.9-0.8-4.2-1.6c-0.5-0.2-0.8-0.1-1.2,0.4l-2,2.9c-0.1,0.3,0,0.7,0.2,0.9c2.1,1.4,4.5,2.3,7,2.3
		c4.6,0,7.5-2.6,7.5-5.7C83.8,187.7,80.8,185.8,77.4,185z"/>
	<path class="st0" d="M28.1,166.5c-0.3,0-0.7,0.2-0.9,0.5l-11.1,11.4c-0.2,0.2-0.4,0.3-0.6,0.4c-0.2,0.1-0.4,0.1-0.6,0
		c-0.2-0.1-0.4-0.3-0.6-0.4L3.2,167c-0.2-0.3-0.5-0.4-0.9-0.5c-0.6,0-1.1,0.5-1.1,1.2l-1.2,28c0,0.4,0.3,0.7,0.6,0.7c0,0,0,0,0,0
		h5.8c0.4,0,0.6-0.3,0.6-0.7l0.5-12.9c0-0.4,0.3-0.7,0.6-0.7c0.2,0,0.4,0.1,0.5,0.3l5.2,5.2c0.3,0.4,0.8,0.6,1.3,0.6l0,0
		c0.5,0,0.9-0.3,1.3-0.6l5.2-5.2c0.2-0.3,0.6-0.3,0.9-0.1c0.2,0.1,0.3,0.3,0.3,0.5l0.5,12.9c0,0.4,0.3,0.7,0.6,0.7c0,0,0,0,0,0h5.8
		c0.4,0,0.7-0.3,0.6-0.7c0,0,0,0,0,0l-1.2-28.1C29.1,167,28.7,166.5,28.1,166.5z"/>
	<path class="st0" d="M141,189.2c1.6-0.1,2.9-1.4,2.9-3.1c0.1-4.1-3.1-8.2-8.8-8.2c-5,0-9.1,4.1-9.1,9.1c0,0.1,0,0.1,0,0.2
		c-0.1,5.1,4,9.3,9.1,9.3c0.1,0,0.2,0,0.3,0c3.4,0,6-1.1,7.6-3.2c0.3-0.4,0.1-0.7-0.1-1l-1-1.6c-0.2-0.3-0.6-0.3-1.1-0.1
		c-1.7,0.7-3.5,1-5.3,0.8c-1.8-0.2-3.3-0.9-3.6-2.2C134.9,189.6,138,189.6,141,189.2z M132,185.3c0.3-1.5,1.7-2.5,3.2-2.4
		c2.4-0.1,3.5,1.3,3,2.4C136.1,185.5,134,185.5,132,185.3L132,185.3z"/>
	<path class="st0" d="M122.5,196.5c-2.8-1.4-7.2-1.4-10.1-1.8c-1.7-0.3-2.6-0.7-2.4-1.4c0.2-0.5,0.6-0.8,1.9-0.5
		c1,0.3,2.1,0.5,3.2,0.5c4.8,0.2,8.5-1.9,8.5-6.9c0-1.3-0.2-2.5-0.8-3.7c0.5-0.2,1.4-0.3,1.5-0.8l0.2-2.9c0-0.4-0.3-0.7-0.7-0.8
		c0,0,0,0-0.1,0c-2,0.1-3.9,0.1-5.9-0.1c-1.6-0.1-2.1-0.2-2.9-0.2c-4.6-0.1-8.4,3.6-8.5,8.1c0,0.1,0,0.1,0,0.2
		c0,1.6,0.6,3.1,1.7,4.3c-1.7-0.1-3.1,1.2-3.1,2.9c0,0,0,0,0,0.1c0,2.7,2.2,3.9,4.4,4.4c-1.4,0.3-3.4,1.1-3.7,3.4
		c-0.5,4.4,3.6,6.9,8.9,6.9c5.9,0,11.1-2.2,10.9-6.9C125.6,199.2,124.4,197.3,122.5,196.5z M115.1,183.7c1.4-0.1,2.5,1,2.6,2.3
		c-0.1,1.3-1.2,2.4-2.5,2.3c0,0,0,0-0.1,0c-1.4,0.1-2.5-1-2.6-2.3C112.6,184.6,113.8,183.6,115.1,183.7L115.1,183.7z M115.3,203.4
		c-1.9,0-3.6-0.2-3.7-1.8c-0.1-1.3,0.5-2.3,2.3-2.3c1.4,0,2.8,0.3,4.2,0.7c0.6,0.2,1,0.7,1,1.3C119.1,202.8,117.6,203.4,115.3,203.4
		L115.3,203.4z"/>
	<path class="st0" d="M49.8,184.5c0.2-4.2-3.2-6.4-7.6-6.5c-2.6-0.1-5.2,0.5-7.5,1.6c-0.4,0.2-0.5,0.6-0.4,1l1,3.2
		c0.1,0.4,0.6,0.6,1.1,0.4c1.8-0.8,3.8-1.1,5.8-0.9c1.2,0.2,1.6,0.9,1.6,1.4c-8.2,1.3-11.6,3.5-10.5,8.2c0.9,3.7,5.2,4,7.6,3.8
		c1.4-0.1,2.6-0.6,3.7-1.4c0.2,0.7,0.7,1.1,1.4,1.2h3.5c0.5,0,0.7-0.5,0.7-0.9C49.7,191.8,49.6,188.2,49.8,184.5z M39.9,192.1
		c-0.6,0-1.1-0.6-1.1-1.2c0-0.4,0.2-0.7,0.5-0.9c1.4-0.8,3-1.2,4.6-1.1l0.1,1.9C42.9,191.8,41.4,192.3,39.9,192.1z"/>
	<path class="st0" d="M102.2,184.5c0.2-4.2-3.2-6.4-7.6-6.5c-2.6-0.1-5.2,0.5-7.5,1.6c-0.4,0.2-0.5,0.6-0.4,1l1,3.2
		c0.1,0.4,0.6,0.6,1.1,0.4c1.8-0.8,3.8-1.1,5.8-0.9c1.2,0.2,1.6,0.9,1.6,1.4c-8.2,1.3-11.6,3.5-10.5,8.2c0.9,3.7,5.2,4,7.6,3.8
		c1.3-0.1,2.6-0.6,3.6-1.5c0.2,0.7,0.7,1.1,1.4,1.2h3.6c0.5,0,0.7-0.5,0.7-0.9C102.1,191.8,102,188.2,102.2,184.5z M92.3,192.1
		c-0.6,0-1.1-0.6-1.1-1.2c0-0.4,0.2-0.7,0.5-0.9c1.4-0.8,3-1.2,4.6-1.1l0.1,1.9C95.3,191.8,93.8,192.3,92.3,192.1z"/>
	<path class="st0" d="M196.6,193.1v-7.6c0-4.2-3.5-7.6-7.7-7.5c-0.1,0-0.2,0-0.3,0c-1.7,0.1-3.3,0.6-4.7,1.7c-0.1,0.1-0.3,0-0.3-0.1
		c-0.2-0.3-0.4-0.6-0.6-1c-0.1-0.2-0.3-0.4-0.6-0.4h-3.8c-0.4,0-0.7,0.3-0.7,0.7v16.7c0,0.4,0.3,0.8,0.7,0.8c0,0,0,0,0.1,0h4.9
		c0.4,0,0.8-0.4,0.8-0.8v-10c1.5-2.4,5.9-2.1,5.9,1.8v7c-0.1,1,0.6,1.9,1.6,2c0.1,0,0.2,0,0.3,0h4.2c0.4,0,0.6-0.4,0.5-0.9
		C196.7,194.7,196.6,193.9,196.6,193.1z"/>
	<path class="st0" d="M232.9,178.2h-5.3c-0.4,0-0.8,0.2-0.9,0.6l-3.6,7.9l-3.8-7.9c-0.1-0.4-0.5-0.6-0.9-0.6h-9.1
		c-0.4,0-0.6,0.3-0.8,0.8L206,185c-0.1,0.1-0.1,0.1-0.1,0l-2.7-6c-0.2-0.5-0.4-0.8-0.8-0.8h-5.4c-0.5,0-0.8,0.3-0.5,0.8l8.3,16.9
		c0.1,0.4,0.4,0.6,0.8,0.7h0.4c0.4-0.1,0.7-0.3,0.8-0.7l7-14.2l6,11.4l-7.9,13.7c-0.4,0.7-0.8,1.3,0.2,1.3h5.1
		c0.8,0,0.9-0.4,1.2-0.8l15-28.2C233.8,178.6,233.5,178.2,232.9,178.2z"/>
	<path class="st0" d="M174.3,167.2h-16.6c-1,0-1.8,0.8-1.8,1.8v25.7c0,1,0.8,1.8,1.8,1.8c0,0,0,0,0,0h16.6c0.5,0,1-0.4,1-0.9
		c0,0,0,0,0,0v-4.6c0-0.6-0.4-1-1-1h-10.5c-0.4,0-0.7-0.3-0.7-0.7c0,0,0,0,0,0v-3.1c0-0.6,0.4-1,1-1h6.9c0.6,0,1-0.4,1-1v-4.6
		c0-0.6-0.4-1-1-1h-6.9c-0.6,0-1-0.4-1-1v-3c0-0.4,0.3-0.7,0.7-0.7c0,0,0,0,0,0h10.4c0.6,0,1-0.4,1-1v-4.6
		C175.3,167.6,174.9,167.2,174.3,167.2z"/>
</g>
</svg>
