<svg width="210" height="23" viewBox="0 0 210 23" fill="none" xmlns="http://www.w3.org/2000/svg">
<g clip-path="url(#clip0)">
<path fill-rule="evenodd" clip-rule="evenodd" d="M155.12 1.4093C157.717 1.4093 164.243 4.1323 164.243 11.9183C164.243 18.8443 158.87 23.0003 154.975 23.0003C149.783 23.0003 145.673 19.0583 145.673 12.5383C145.673 6.0183 149.712 1.4093 155.12 1.4093ZM146.394 1.4093V2.1493C143.077 3.8693 141.634 5.7323 141.634 10.2463C141.634 14.7603 141.129 22.7843 133.99 22.7843C128.797 22.7843 127.716 15.8343 123.894 16.1933L123.533 15.7633L132.764 10.9623L132.98 11.4643C130.528 13.8283 132.547 16.1933 133.846 16.1933C136.37 16.1933 137.452 13.9513 137.452 9.9593C137.452 5.9683 135.252 3.5823 132.728 2.0063V1.4093H146.394ZM199.688 0.9314C202.933 0.9314 205.025 2.2214 206.467 2.2214C207.908 2.2214 208.99 1.7914 209.495 1.3614L210 1.7194L205.89 9.3144L205.24 8.8844C205.818 6.0904 203.798 4.8004 201.635 4.8004C199.471 4.8004 198.822 6.4484 198.822 7.0934C198.822 10.4614 206.538 10.6044 206.538 16.2644C206.538 20.7064 203.221 22.6414 200.048 22.6414C196.875 22.6414 195.65 21.6384 193.918 21.6384C192.188 21.6384 191.827 21.7814 191.178 22.3544C191.178 22.3544 189.926 22.4044 189.634 22.4211L189.592 22.423L192.908 13.3984L193.413 13.5424C193.775 15.7624 194.423 18.1994 196.226 18.1994C198.03 18.1994 198.318 17.0524 198.318 16.1934C198.318 14.1864 191.9 12.2524 191.9 7.6664C191.9 3.5824 196.443 0.9314 199.688 0.9314ZM31.3697 1.4093C33.9667 1.4093 34.9037 4.1983 34.9037 5.9683C34.9037 7.7383 34.1107 9.5293 31.3697 11.4643C32.5957 15.4763 34.9037 19.6323 36.7067 21.4953V22.4263H29.3507C30.4327 18.6293 28.7737 12.6823 26.3217 12.6823C23.8697 12.6823 24.9517 19.2023 26.8987 22.4263H17.9567C20.0477 19.1303 21.3457 14.7363 21.3457 11.9183L21.3453 11.446C21.3368 8.75477 21.1855 5.78491 18.4617 1.4093H31.3697ZM110.265 1.4093C112.861 1.4093 113.798 4.1983 113.798 5.9683C113.798 7.7383 113.005 9.5293 110.265 11.4643C111.49 15.4763 113.798 19.6323 115.601 21.4953V22.4263H108.245C109.327 18.6293 107.669 12.6823 105.216 12.6823C102.765 12.6823 103.846 19.2023 105.794 22.4263H96.8508C98.9428 19.1303 100.24 14.7363 100.24 11.9183L100.239 11.446C100.231 8.75477 100.08 5.78491 97.3559 1.4093H110.265ZM93.6063 1.4096L94.9763 8.3826H94.3273C91.2973 5.9676 88.6293 5.3736 86.2503 5.3736C84.9253 5.3736 84.1583 6.8066 84.1583 7.8096C84.1583 8.8126 85.0243 10.1746 89.3513 9.3146V13.6136C87.1873 12.5386 84.5913 12.6826 84.5913 15.1896C84.5913 16.6846 85.3893 17.9536 87.0473 17.9536C88.7063 17.9536 91.8753 16.7666 94.1103 14.9746H94.9763L93.4613 22.4266H77.7043C79.7963 19.1306 81.0933 14.7356 81.0933 11.9176C81.0933 9.0996 81.0933 6.0426 78.2093 1.4096H93.6063ZM14.9402 1.4094L18.4612 10.4614L17.8122 10.9624C16.5862 8.5264 14.1352 6.6634 13.2452 6.6634C13.2236 6.6634 13.2018 6.66329 13.1801 6.66312L13.0497 6.6619C13.028 6.66175 13.0063 6.66165 12.9846 6.66167L12.8549 6.6637C12.1018 6.68933 11.4182 7.00362 11.4182 10.1024C11.4182 13.7334 13.0522 18.8914 15.0722 22.4264H3.38924C5.40824 18.8914 7.04324 13.7334 7.04324 10.1024C7.04324 7.00362 6.36042 6.68933 5.60691 6.6637L5.47716 6.66167C5.45546 6.66165 5.43373 6.66175 5.41198 6.6619L5.28144 6.66312L5.21624 6.6634C4.32724 6.6634 1.87524 8.5264 0.649244 10.9624L0.000244141 10.4614L3.52124 1.4094H14.9402ZM52.0678 1.4097V4.5857C52.0678 9.0997 55.9618 16.6947 58.7018 22.4267H51.3458C51.7068 18.9877 49.8318 15.0467 47.3078 15.0467C44.7838 15.0467 43.9188 18.6287 44.7118 22.4267H37.6438C39.4988 18.0037 43.4138 8.0247 43.4138 4.2277V1.4097H52.0678ZM68.5813 1.4096C71.1773 1.4096 77.7043 4.1316 77.7043 11.9176C77.7043 19.7036 71.1063 22.4266 68.4373 22.4266H59.4953C61.5863 19.1306 62.8843 14.7356 62.8843 11.9176C62.8843 9.0996 62.8843 6.0426 60.0003 1.4096H68.5813ZM180.145 1.4094L181.515 8.3834H180.865C177.837 5.9684 175.168 5.3734 172.788 5.3734C171.464 5.3734 170.697 6.8064 170.697 7.8094C170.697 8.8134 171.562 10.1744 175.89 9.3144V13.6134C173.726 12.5384 171.13 12.6824 171.13 15.1904C171.13 16.6844 171.928 17.9534 173.586 17.9534C175.245 17.9534 178.413 16.7664 180.649 14.9744H181.515L180 22.4264H164.243C166.334 19.1304 167.632 14.7364 167.632 11.9184L167.631 11.4461C167.623 8.75487 167.472 5.78501 164.748 1.4094H180.145ZM153.75 8.1923C151.36 8.1923 149.423 10.1173 149.423 12.4913C149.423 14.8663 151.36 16.7903 153.75 16.7903C156.14 16.7903 158.077 14.8663 158.077 12.4913C158.077 10.1173 156.14 8.1923 153.75 8.1923ZM67.0673 5.3736C66.5623 8.4546 66.7783 13.1836 67.6443 16.0496C75.7213 13.9716 72.8363 6.4486 67.0673 5.3736ZM47.5958 7.0217C47.3078 8.0757 46.3698 11.1057 45.5048 12.5387H50.0478C48.8938 10.9627 48.1728 9.4577 47.5958 7.0217ZM104.423 4.6573V10.9623C107.452 10.3173 108.245 8.9563 108.245 7.1653C108.245 5.3733 106.082 4.6573 104.423 4.6573ZM25.5287 4.6573V10.9623C28.5577 10.3173 29.3507 8.9563 29.3507 7.1653C29.3507 5.3733 27.1877 4.6573 25.5287 4.6573ZM187.572 0C189.303 0 191.033 0.645 191.033 2.938C191.033 5.231 189.158 7.237 186.418 9.673L185.985 9.458C186.563 8.598 186.923 7.667 186.923 6.305C186.923 4.944 184.688 4.8 184.688 2.651C184.688 1.361 185.842 0 187.572 0Z" fill="#C81E24"/>
</g>
<defs>
<clipPath id="clip0">
<rect width="210" height="23" fill="white"/>
</clipPath>
</defs>
</svg>
