<svg id="Layer_1" data-name="Layer 1" xmlns="http://www.w3.org/2000/svg" viewBox="0 0 219.66576 62.5923"><defs><style>.cls-1{fill:#68aee0;}.cls-2{fill:#faab54;}.cls-3{fill:#003976;}</style></defs><title>tsb-horizontal-logo</title><path class="cls-1" d="M22.14359,54.4619a65.54442,65.54442,0,0,1,1.5405-10.8686c1.9853-10.0225,2.1894-13.3745,2.2632-14.7876a.488.488,0,0,0-.2627-.48c-4.145-1.7085-11.8223-2.0781-17.0425-.6651a28.69475,28.69475,0,0,0-.7036,4.2774c-.9971,11.397,5.0273,21.1831,14.4868,25.4419A14.87576,14.87576,0,0,1,22.14359,54.4619Z" transform="translate(-3.40742 -4.2192)"/><path class="cls-1" d="M46.27979,5.4878a.1212.1212,0,0,1,.0229.1201l-3.208,13.4834a.15579.15579,0,0,0,.1587.2007h10.4878a.15763.15763,0,0,1,.1602.2017l-1.9126,8.2612a.274.274,0,0,1-.2534.2012H41.25049a.27041.27041,0,0,0-.25149.2016s-4.88431,22.0659-4.90771,24.7056a4.29063,4.29063,0,0,0,4.6196,4.5293,26.67723,26.67723,0,0,0,5.6885-1.0283.10591.10591,0,0,1,.1319.042A30.88649,30.88649,0,0,0,63.375,31.938C64.46189,19.5244,57.21969,9.0181,46.27979,5.4878Z" transform="translate(-3.40742 -4.2192)"/><path class="cls-1" d="M31.21679,19.1445a.22374.22374,0,0,0,.0547-.0815l2.0947-9.1973a.40655.40655,0,0,1,.2422-.2661l12.5469-4.1279a.11943.11943,0,0,1,.1128.0117,26.63659,26.63659,0,0,0-8.1856-1.2642c-11.8091,0-22.5132,7.399-27.416,17.8037C14.28859,19.5908,21.00829,16.8232,31.21679,19.1445Z" transform="translate(-3.40742 -4.2192)"/><path class="cls-2" d="M7.40139,24.853s8.9492-7.8354,28.4985-2.0532c6.2798,1.8574,10.4644,2.4204,13.0752,2.0532,3.4912-.4907,4.2505-2.3662,4.23291-2.3642l.15869-.6866S52.123,23.4976,48.458,23.5234c-3.03421.0215-7.66991-1.6142-14.52151-3.6694-18.3237-5.4956-26.5351,4.999-26.5351,4.999" transform="translate(-3.40742 -4.2192)"/><path class="cls-3" d="M33.93649,19.854c6.8516,2.0552,11.4873,3.6909,14.52151,3.6694,3.665-.0258,4.90869-1.7212,4.90869-1.7212l.5347-2.3085a.15763.15763,0,0,0-.1602-.2017H43.25339a.15579.15579,0,0,1-.1587-.2007l3.208-13.4834c.0269-.1108-.0395-.1719-.1474-.1362L33.60839,9.5996a.40655.40655,0,0,0-.2422.2661l-2.0947,9.1973a.22374.22374,0,0,1-.0547.0815C32.09959,19.3452,33.00149,19.5737,33.93649,19.854Z" transform="translate(-3.40742 -4.2192)"/><path class="cls-3" d="M48.97509,24.853c-2.6108.3672-6.7954-.1958-13.0752-2.0532-14.5596-4.3066-23.2358-1.0605-26.7183.8774a19.36794,19.36794,0,0,0-5.4594,4.7466c-.541.6973-.3487.7808.3027.293,8.541-6.4053,24.5103-2.7129,31.4072-1.1729.3472.0772.2256.2818-.0234.2818-1.1738,0-6.9478.1025-7.1836.1035-.1963.0005-.2964.0806-.2979.314-.0063.9585-.2368,4.3872-2.4326,15.4726a65.55093,65.55093,0,0,0-1.5405,10.8682c0,8.9678,5.7964,12.2275,14.0396,12.2275a38.264,38.264,0,0,0,6.3198-1.0371.36448.36448,0,0,0,.2456-.251l1.9941-9.0156c.0244-.1113-.0449-.1758-.1538-.1435a26.67723,26.67723,0,0,1-5.6885,1.0283,4.29063,4.29063,0,0,1-4.6196-4.5293c.0234-2.6397,4.90771-24.7056,4.90771-24.7056a.27041.27041,0,0,1,.25149-.2016h10.4849a.274.274,0,0,0,.2534-.2012l1.2187-5.2661C53.22459,22.4893,52.46389,24.3623,48.97509,24.853Z" transform="translate(-3.40742 -4.2192)"/><path class="cls-3" d="M106.96289,30.5605c-1.5386-.1503-1.5991-.1503-1.6592-1.5078V23.6826c0-2.293-.1811-2.8955-.4526-3.3486a3.837,3.837,0,0,0-3.2578-1.6895,13.34659,13.34659,0,0,0-5.7017,1.8106c0-2.5645.0303-5.6714.1206-7.6323,0-.3013.1509-1.8702.1509-2.021,0-.2413-.0303-.4825-.5733-.4825-.5127,0-5.0786,1.7022-6.2695,1.9307-1.7192.3301-9.2915.3315-10.0156.3315-1.2969,0-6.395,0-7.2398-.2109-.392-.0908-.48289-.2417-.8144-.2417-.3926,0-.4526.2715-.543.9956-.06049.543-.6338,4.3443-.6338,4.4038,0,.3321.2412.3321.875.3321.4527,0,.4527-.0909.6939-.9346.603-2.2022,1.0859-2.3233,6.2143-2.4136.0298,1.2671.0904,4.8267.0904,5.9126,0,1.418-.03029,6.8477-.1206,8.0244-.1812,1.9004-.8448,1.961-2.8658,2.1416-.2714.0303-.3017.2715-.3017.5733,0,.4218,0,.664.2412.664.6338,0,1.3877-.0302,2.2324-.0605.8447,0,1.7798-.0303,2.8355-.0303,1.5083,0,2.59471.0303,3.4389.0303.815.0303,1.3579.0605,1.6895.0605.36231,0,.42231-.2119.42231-.6338,0-.332,0-.5732-.45261-.6035-2.7148-.0605-2.7749-.2109-2.83539-3.1972-.03031-1.3575-.03031-4.7364-.03031-7.7832V14.5122a24.1463,24.1463,0,0,1,4.7666.2715c.6938.2114.6938.3623.7842,2.6548,0,.4521.2412.4521.66351.4521.51269,0,.66359-.0302.75439-.3017a13.41439,13.41439,0,0,0,.4224-2.232c.0425-.4716.2036-2.3657.8398-2.3227s1.2066.0303,1.3877.7241a66.01853,66.01853,0,0,1,.211,6.6665c0,2.4736,0,4.2529-.0601,6.8477-.0303,1.9004-.1211,3.0771-1.3877,3.1972-.60349.0606-.664.0908-.664.7246,0,.4825.0302.6036.5131.6036.5127,0,2.98641-.0606,3.5596-.0606.4526,0,2.8355.0606,3.3784.0606.4527,0,.4829-.1514.4829-.6338s-.0302-.6338-.5429-.6641c-.6939,0-1.20659-.0596-1.2974-1.0254-.0903-1.0859-.0903-6.456-.1206-7.6621h.0303a8.00479,8.00479,0,0,1,2.6845-.543c2.7154,0,2.7154,1.5987,2.7154,4.9473a14.71026,14.71026,0,0,1-.2715,3.5293c-.2114.5127-.6338.6035-1.1465.7236-.5732.1211-.5732.1211-.5732.6641s0,.6641.4829.6641c.4521,0,2.7451-.0606,3.2578-.0606s3.0469.0606,3.6201.0606c.5127,0,.6333-.0606.6333-.6338C107.32469,30.832,107.29439,30.5908,106.96289,30.5605Z" transform="translate(-3.40742 -4.2192)"/><path class="cls-3" d="M115.79789,18.7051c-5.46,0-7.9942,3.3486-7.9942,6.6367s1.3574,4.7061,2.5039,5.46a7.77914,7.77914,0,0,0,4.4346,1.3271c4.7656,0,8.1445-2.6846,8.1445-6.9678C122.88669,22.5967,121.34859,18.7051,115.79789,18.7051Zm-.0303,11.7646c-3.107,0-3.6201-4.4638-3.6201-6.2744,0-.4824,0-3.831,2.685-3.831,2.8057,0,3.71051,3.6806,3.71051,6.1845C118.543,27.2422,118.543,30.4697,115.76759,30.4697Z" transform="translate(-3.40742 -4.2192)"/><path class="cls-3" d="M148.877,30.5605c-1.629-.0302-1.629-.0605-1.629-2.3525V22.6572a3.71412,3.71412,0,0,0-3.79981-4.0127c-1.9921,0-4.5253,1.5391-5.3701,2.0518a2.936,2.936,0,0,0-3.1074-2.0518c-1.05569,0-2.1416.2715-5.42969,2.1426.06059-.543.211-1.418.211-1.9609,0-.2412-.03031-.4229-.69441-.4229a34.80159,34.80159,0,0,0-4.5547,1.5088c-.8447.332-.875.3613-.875.9951,0,.3623.0303.543.3623.543.6631,0,1.2666,0,1.4786.6943a17.00565,17.00565,0,0,1,.1806,3.3184c0,.6934-.0303,3.0469-.0908,3.6494-.1504,1.0566-.6328,1.2373-1.1768,1.3281-.7539.1201-.7539.1201-.7539.7237,0,.5429,0,.6338.3623.6338.875,0,2.7149-.0606,3.6494-.0606.8155,0,2.837.0606,3.5909.0606.332,0,.332-.1817.332-.9356,0-.2715-.0908-.2715-.6943-.3623-.8145-.1201-1.2373-.1807-1.2373-.9346V22.8076c0-.6035,0-.6933.12111-.8144a4.18477,4.18477,0,0,1,2.23239-.6338c2.4433,0,2.47361,1.3584,2.47361,4.9179,0,3.9209-.15141,3.9512-1.11621,4.1631-.6943.1504-.6943.1504-.6943.6934,0,.3017,0,.6641.2119.6641.3613,0,1.8398-.0606,3.2578-.0606,2.3525,0,3.6504.0606,3.9814.0606.2412,0,.3623-.1211.3623-.6036,0-.6338-.0605-.6338-.663-.6338-1.0557-.0302-1.3584-.2412-1.3584-1.9003V21.7217l.2421-.1201a5.7676,5.7676,0,0,1,1.9297-.3623c2.0518,0,2.6553,1.0556,2.6553,3.4384,0,5.2793-.0605,5.6114-1.2061,5.8526-.5429.1211-.5742.1513-.5742.7539,0,.332.0313.5137.2715.5137.7549,0,1.7803-.0606,3.1377-.0606,1.9307,0,3.9219.0606,4.2529.0606.2725,0,.333-.1211.333-.5733C149.48139,30.6211,149.48139,30.5605,148.877,30.5605Z" transform="translate(-3.40742 -4.2192)"/><path class="cls-3" d="M162.56639,29.6553c-.873,0-.873-.4219-.873-1.96,0-.7549.1504-4.4648.1504-5.3096a3.1394,3.1394,0,0,0-1.1163-2.8056,5.36029,5.36029,0,0,0-3.0771-.875c-3.7109,0-6.81839,2.956-6.81839,4.1933a.53689.53689,0,0,0,.57329.543,11.269,11.269,0,0,0,2.0508-.332c.6337-.1504.996-.2412.996-.8448,0-.0898-.0908-.4824-.0908-.6035,0-.5429,1.5088-.5429,1.6905-.5429,1.99121,0,1.99121.7851,1.99121,3.8916a29.52821,29.52821,0,0,0-5.85351,1.1162c-1.2666.4228-1.8399,1.0254-1.8399,2.8359,0,2.0508,1.02541,3.167,2.9863,3.167a11.06686,11.06686,0,0,0,4.70711-1.2363,1.87593,1.87593,0,0,0,1.90039,1.2666,10.65809,10.65809,0,0,0,3.7089-1.0557c1.0274-.4521,1.0274-.4824,1.05771-.9346v-.9355l-.15241-.0908A4.97965,4.97965,0,0,1,162.56639,29.6553Zm-4.6143-.1807a5.85624,5.85624,0,0,1-2.1728.4824c-1.2656,0-1.6289-.5732-1.6289-1.9609a1.022,1.022,0,0,1,.6641-1.1162,5.98168,5.98168,0,0,1,2.5039-.6631c.663,0,.663.4521.663.9951Z" transform="translate(-3.40742 -4.2192)"/><path class="cls-3" d="M172.39749,23.9541c-2.2618-.9053-3.0752-1.3877-3.0752-2.3828,0-.3018.1504-1.418,1.748-1.418,1.5693,0,2.2324.8145,3.0772,2.5039.1504.2715.2119.3321.6943.3018.7539-.0908.7539-.2412.7539-.4531,0-.3916-.21-2.2618-.3311-2.9258-.0917-.6641-.121-.7237-.333-.7237-.0293,0-.1503.0293-.2412.0293a1.54526,1.54526,0,0,1-.331.0606c-.15039,0-.69439-.0606-1.35739-.1201-.66411-.0606-1.38771-.1211-1.629-.1211-4.31441,0-5.46091,2.4433-5.46091,4.1328,0,2.1113,1.6602,2.8965,3.4102,3.6807,2.8652,1.3271,3.3466,1.5683,3.3466,2.5937a1.68164,1.68164,0,0,1-.2714.9356,1.76055,1.76055,0,0,1-1.5371.6337,3.68481,3.68481,0,0,1-3.6211-2.7753c-.1807-.543-.3008-.6036-.4522-.6036l-.7549.0909c-.3008.0595-.3008.2412-.3008.3613,0,.5127.1504,1.0264.1807,1.6592.0313.3623,0,1.1464,0,1.9609,0,.3623.1201.4531.3027.4531.0606,0,.45121-.0605.542-.0605a2.06426,2.06426,0,0,1,.544.0605,31.39491,31.39491,0,0,0,3.3183.3008c2.7452,0,3.8614-.7539,4.584-1.4775a3.74724,3.74724,0,0,0,1.1162-2.7149C176.31929,25.583,174.29789,24.6777,172.39749,23.9541Z" transform="translate(-3.40742 -4.2192)"/><path class="cls-3" d="M187.207,19.0371h-4.31341c.0293-1.1767.2412-2.2622.2412-2.5942,0-.2715-.1817-.3018-.6035-.3018-.57229,0-.6338.0606-1.2374.6641a31.35164,31.35164,0,0,1-3.6503,2.9555c-.211.1211-.211.3926-.211.8145,0,.2715,0,.4531.2412.4531h1.3575c0,1.0254-.1202,5.9727-.1202,7.0889,0,2.081.3916,2.8359.96591,3.3183a3.57506,3.57506,0,0,0,2.17089.6934,11.85135,11.85135,0,0,0,4.7666-1.3574c.6337-.2715.6337-.3311.6337-.8447v-.7842h-.3916a5.03386,5.03386,0,0,1-2.2021.6035c-1.9316,0-1.9912-1.3574-2.02249-2.0811-.05951-1.1162-.03021-4.6162,0-6.5771h4.16309c.4844,0,.5733,0,.5733-.2715V19.3086C187.56839,19.0674,187.50779,19.0371,187.207,19.0371Z" transform="translate(-3.40742 -4.2192)"/><path class="cls-3" d="M196.74509,18.7051c-5.4599,0-7.99309,3.3486-7.99309,6.6367s1.35739,4.7061,2.50389,5.46a7.77606,7.77606,0,0,0,4.4336,1.3271c4.7666,0,8.14551-2.6846,8.14551-6.9678C203.835,22.5967,202.29689,18.7051,196.74509,18.7051Zm-.0303,11.7646c-3.1054,0-3.6201-4.4638-3.6201-6.2744,0-.4824,0-3.831,2.6866-3.831,2.8046,0,3.7089,3.6806,3.7089,6.1845C199.49019,27.2422,199.49019,30.4697,196.71479,30.4697Z" transform="translate(-3.40742 -4.2192)"/><path class="cls-3" d="M222.08109,30.5908c-1.4776-.1211-1.8086-.1504-1.8995-1.3271-.0615-.9658-.0615-2.6553-.0615-5.2188,0-1.3877,0-2.9267-.66309-3.9219a3.489,3.489,0,0,0-2.98731-1.4482c-2.1103,0-4.8554,1.5986-5.76069,2.1416.03029-.3008.18059-1.7187.18059-1.9307,0-.3007-.2705-.3007-.4228-.3007a2.47936,2.47936,0,0,0-.7842.1201c-.93459.2715-2.9853,1.0556-4.1318,1.4785-.6944.2715-.7852.3018-.7852.7539,0,.5732.0908.5732.8155.6035,1.1757.0606,1.29591.7236,1.29591,3.2881,0,2.2022,0,3.6504-.08991,4.2529-.0898.9053-.4228,1.3282-1.3574,1.4483-.6328.0908-.6641.1816-.6641.7246,0,.4219.0313.543.3321.543.69331,0,1.9609-.0606,3.9209-.0606,1.1767,0,2.3232.0606,3.5.0606.4218,0,.4218-.1211.4218-.5733,0-.543-.0595-.6035-.5127-.6035-1.5976,0-1.6289-.6943-1.6884-1.5088-.0616-.874-.0616-5.3389-.0616-6.4551,0-.664.0909-.7246.2715-.7842a8.10882,8.10882,0,0,1,2.6865-.5429c2.5332,0,2.5332,2.1719,2.5332,3.5595,0,.9649,0,3.5899-.0908,4.3135-.1513.9658-.3623,1.1768-1.2373,1.3877-.4219.1211-.4512.1211-.4512.6641,0,.3613,0,.543.36241.543,1.17479,0,2.38279-.0606,3.55849-.0606,1.2666,0,2.504.0606,3.7706.0606.4834,0,.5127-.1817.5127-.6036C222.59379,30.7412,222.56449,30.6211,222.08109,30.5908Z" transform="translate(-3.40742 -4.2192)"/><path class="cls-3" d="M85.30959,39.8633c0,.914.1303,1.8545.1303,2.0898,0,.3916-.6528.4707-.8877.4707-.3134,0-.3398-.1045-.5488-.915-.2612-.9658-.8096-2.6123-3.6836-2.6123-2.6382,0-2.7427,1.9072-2.7427,2.2734,0,1.5147,1.4107,2.2725,2.5601,2.7686,3.2129,1.4111,4.1274,1.8027,5.1201,2.8213a4.15564,4.15564,0,0,1,1.0713,2.8476,4.88821,4.88821,0,0,1-2.0381,3.9707,6.94322,6.94322,0,0,1-4.2842,1.0967,23.49932,23.49932,0,0,1-3.3437-.2607,9.78575,9.78575,0,0,0-1.5674-.2354.67242.67242,0,0,0-.4438.1309.70626.70626,0,0,1-.418.1308c-.3135,0-.3657-.0791-.4702-.7578-.1045-.8623-.3399-3.7617-.3399-4.1279,0-.5479.418-.7568.9146-.7568.3135,0,.3393.0781.5225.7568a5.0345,5.0345,0,0,0,1.1494,2.4033,4.96067,4.96067,0,0,0,3.4741,1.2539c2.6387,0,3.1348-1.7236,3.1348-2.6123,0-1.3838-.9664-2.1416-2.2725-2.7168-3.3174-1.4629-4.1016-1.8017-5.042-2.7949a4.0105,4.0105,0,0,1-1.123-2.8994c0-2.4815,1.8027-4.7549,6.4262-4.7549a18.35349,18.35349,0,0,1,3.2652.3135,2.31212,2.31212,0,0,0,.5752.0791,2.51553,2.51553,0,0,0,.3134-.0528c.1304-.0263.26081-.0517.2871-.0517.18271,0,.2613.0517.2613.2344Z" transform="translate(-3.40742 -4.2192)"/><path class="cls-3" d="M99.70209,52.167v.8105c-.0258.3916-.0258.418-.9145.8096a9.25412,9.25412,0,0,1-3.2129.9141,1.627,1.627,0,0,1-1.6455-1.0967A9.586,9.586,0,0,1,89.854,54.6748c-1.69821,0-2.58641-.9658-2.58641-2.7422,0-1.5674.4966-2.0898,1.5932-2.456a25.62614,25.62614,0,0,1,5.0684-.9668c0-2.6905,0-3.3692-1.7246-3.3692-.1563,0-1.4629,0-1.4629.4698,0,.1044.0786.4443.0786.5224,0,.5225-.3135.6006-.8618.7315a9.76581,9.76581,0,0,1-1.7764.2871.46478.46478,0,0,1-.4966-.4698c0-1.0712,2.691-3.6308,5.9039-3.6308a4.64361,4.64361,0,0,1,2.6645.7568,2.71565,2.71565,0,0,1,.9663,2.4297c0,.7315-.1304,3.9443-.1304,4.5977,0,1.332,0,1.6982.7574,1.6982a4.31829,4.31829,0,0,0,1.7246-.4443Zm-5.8256-1.75c0-.4697,0-.8623-.5743-.8623a5.18048,5.18048,0,0,0-2.1684.5752.88463.88463,0,0,0-.5747.9668c0,1.2012.3135,1.6972,1.4106,1.6972a5.06094,5.06094,0,0,0,1.8809-.4179Z" transform="translate(-3.40742 -4.2192)"/><path class="cls-3" d="M107.72119,46.3682a4.775,4.775,0,0,0,.418-1.3848c0-.4961-.4439-.5488-1.1231-.6006-.3916-.0264-.4443-.1572-.4443-.3916,0-.6016.0527-.6533.3398-.6533.3916,0,2.1162.0517,2.4556.0517.2612,0,1.4629-.0517,1.6977-.0517.2618,0,.3663.0517.3663.5742,0,.2617-.0528.3926-.2354.4971-.96679.5742-1.2017.9404-3.7095,5.9297-.5747,1.1494-1.8286,3.7617-1.8808,3.8662-.0259.0781-.10449.1045-.3658.1562-.6792.1045-1.332.1836-1.4628.1836s-.1568-.0263-.2872-.3662c-.8886-2.0898-2.3515-5.3808-3.1875-7.4971-.78319-1.9336-1.0185-2.038-1.6977-2.3252-.2349-.1044-.2349-.1562-.2349-.6005,0-.418.0782-.418.2608-.418.4707,0,2.6123.0517,3.05661.0517s2.42969-.0517,2.84769-.0517c.2607,0,.33931,0,.33931.5488,0,.4434-.10451.4961-.39211.5225-.7314.0781-.9922.1299-.9922.5742a4.82152,4.82152,0,0,0,.4698,1.6719c.209.5752,1.5937,4.0488,1.75051,4.4931C106.04929,50.3906,107.46039,47.0469,107.72119,46.3682Z" transform="translate(-3.40742 -4.2192)"/><path class="cls-3" d="M117.30709,44.8789c-.07809,1.0977-.07809,2.0117-.07809,4.2578a25.45448,25.45448,0,0,0,.15669,3.6319c.1568.4697.6792.496,1.6719.5478.3653.0264.3916.209.3916.5225,0,.3662-.0781.5752-.47019.5752-1.14941,0-2.32471-.0782-3.47411-.0782-1.0972,0-2.1944.0782-3.2915.0782-.2871,0-.418-.0782-.418-.5489,0-.4961,0-.5224.5225-.6006.9668-.1308,1.30611-.496,1.4365-1.4892.1045-.6787.1045-2.4551.1045-4.2842,0-1.75-.0781-2.0898-1.2276-2.3252-.5224-.0781-.5224-.0781-.5224-.5224,0-.5225.0264-.5225.4702-.6524l3.2393-.9404a5.21955,5.21955,0,0,1,1.228-.2354c.209,0,.418.0518.418.2871Zm-1.4887-8.0723a2.01543,2.01543,0,0,1,1.8808,1.8291,2.107,2.107,0,0,1-1.9331,1.9854,2.02184,2.02184,0,0,1-1.93309-1.8545A2.17054,2.17054,0,0,1,115.81839,36.8066Z" transform="translate(-3.40742 -4.2192)"/><path class="cls-3" d="M133.11039,44.2783a6.44011,6.44011,0,0,1,.5751,3.3955c0,2.2207,0,3.6836.0528,4.5196.0781,1.0185.3662,1.0449,1.6455,1.1494.418.0263.4433.1308.4433.5224,0,.3662-.0253.5225-.4433.5225-1.0977,0-2.169-.0518-3.2647-.0518-1.0195,0-2.0644.0518-3.0839.0518-.3125,0-.3125-.1563-.3125-.4697,0-.4707.02531-.4707.3916-.5752.7568-.1826.9404-.3653,1.0712-1.2012.0782-.627.0782-2.9004.0782-3.7363,0-1.2012,0-3.0821-2.1944-3.0821a7.03384,7.03384,0,0,0-2.3252.4698c-.1562.0527-.2343.1045-.2343.6797,0,.9668,0,4.833.0517,5.5898.0528.7061.0781,1.3066,1.4629,1.3066.39161,0,.4444.0518.4444.5225,0,.3916,0,.4961-.3653.4961-1.01949,0-2.0127-.0518-3.0303-.0518-1.69919,0-2.7959.0518-3.3964.0518-.26179,0-.2872-.1045-.2872-.4697,0-.4707.02541-.5489.5743-.627.8095-.1045,1.0966-.4707,1.1757-1.2539.0782-.5225.0782-1.7764.0782-3.6836,0-2.2207-.1045-2.7949-1.124-2.8476-.627-.0264-.7042-.0264-.7042-.5225,0-.3916.0772-.418.6788-.6533.9921-.3653,2.7695-1.0449,3.5791-1.2793a2.12682,2.12682,0,0,1,.6796-.1045c.12991,0,.3643,0,.3643.2607,0,.1826-.1299,1.4112-.1562,1.6719.7832-.4697,3.1611-1.8545,4.9902-1.8545A3.02041,3.02041,0,0,1,133.11039,44.2783Z" transform="translate(-3.40742 -4.2192)"/><path class="cls-3" d="M140.23049,61.415c-.9922,0-3.3184-.1826-4.2842-1.123-.3399-.3399-.3916-.6797-.3916-1.7764,0-1.124,0-1.333.7051-1.8291a13.01,13.01,0,0,1,2.6377-1.332,3.04368,3.04368,0,0,1-1.1748-.5752,1.81059,1.81059,0,0,1-.7051-1.4102c0-.9668.3916-1.0976,2.3242-1.8027-1.9854-.5488-3.1865-1.7764-3.1865-3.8398,0-2.3516,1.7763-4.6758,5.6679-4.6758a6.48617,6.48617,0,0,1,2.5342.4433,29.89208,29.89208,0,0,1,3.7617-.1562c.3663,0,.3916.418.3916.9668,0,.7314-.0781.8613-.46969.8613h-1.85451a3.04821,3.04821,0,0,1,.627,1.96c0,2.9511-3.1348,4.1006-4.8067,4.4931-.2617.0782-2.0117.5225-2.1162.5743a.2598.2598,0,0,0-.18259.2617c0,.6523,1.20219.7568,2.53419.8359,3.3965.1826,6.1641.3653,6.1641,3.2129C148.40629,59.1426,144.51459,61.415,140.23049,61.415Zm3.5781-5.3554c-.4951-.0518-2.8467-.209-3.3691-.2871-1.2793.6787-2.1944,1.1494-2.1944,2.2207,0,1.3838,2.08991,1.7236,3.3692,1.7236,2.4043,0,4.0498-1.0713,4.0498-2.2988C145.66409,56.2949,144.30569,56.1123,143.80859,56.0596Zm-2.6377-11.7813c-.3135,0-1.8018.1309-1.8018,2.2725a4.25128,4.25128,0,0,0,1.045,2.9258,2.96179,2.96179,0,0,0,1.67091.9668,2.47479,2.47479,0,0,0,1.59369-2.4297C143.67869,46.4463,142.81639,44.2783,141.17089,44.2783Z" transform="translate(-3.40742 -4.2192)"/><path class="cls-3" d="M157.48139,53.3955c-.6259.627-1.5927,1.2793-3.9707,1.2793a27.28188,27.28188,0,0,1-2.872-.2607,1.77753,1.77753,0,0,0-.47069-.0528c-.07821,0-.419.0528-.46981.0528-.15819,0-.2627-.0782-.2627-.3916,0-.7061.0274-1.3848,0-1.6983-.0253-.5488-.1562-.9931-.1562-1.4365,0-.1045,0-.2617.26071-.3135l.65339-.0791c.1308,0,.2363.0528.39161.5225a3.18918,3.18918,0,0,0,3.13469,2.4033,1.52382,1.52382,0,0,0,1.3321-.5479,1.45583,1.45583,0,0,0,.2353-.8105c0-.8877-.418-1.0967-2.8984-2.2461-1.51569-.6797-2.9532-1.3584-2.9532-3.1875,0-1.4629.9942-3.5781,4.72951-3.5781.208,0,.835.0517,1.40919.1045.5762.0517,1.0449.1045,1.17581.1045a1.33621,1.33621,0,0,0,.28709-.0528,2.08627,2.08627,0,0,0,.209-.0263c.1836,0,.21.0527.2891.6269.1044.5752.2871,2.1944.2871,2.5342,0,.1826,0,.3135-.6534.3916-.41889.0264-.4707-.0254-.6005-.2607-.7325-1.4629-1.3077-2.168-2.6661-2.168-1.3837,0-1.5136.9658-1.5136,1.2275,0,.8623.7051,1.2803,2.6631,2.0635,1.6464.627,3.3964,1.4111,3.3964,3.4482A3.24114,3.24114,0,0,1,157.48139,53.3955Z" transform="translate(-3.40742 -4.2192)"/><path class="cls-3" d="M176.02729,44.1475a4.821,4.821,0,0,1-2.0371.8623A5.93363,5.93363,0,0,1,177.335,46.29a3.82235,3.82235,0,0,1,1.40909,3.0821c0,3.8925-3.8662,5.042-6.583,5.042-1.6455,0-2.872-.1045-4.5175-.1045-1.5674,0-3.6065.1045-4.0498.1045-.3653,0-.3917-.1573-.3917-.5752,0-.4434.0518-.4434.5997-.4961,1.4375-.1826,1.6211-.8096,1.69821-2.1162.02729-.418.05269-1.0967.05269-3.8399v-1.332a53.80528,53.80528,0,0,0-.1562-6.1651c-.1572-.9667-.5488-.9931-1.6983-1.0976-.36619-.0518-.36619-.1045-.36619-.5479,0-.4443.07819-.497.70509-.497,1.2813,0,6.4522-.209,7.4981-.209,1.5419,0,5.8769,0,5.8769,3.7881A3.6142,3.6142,0,0,1,176.02729,44.1475Zm-6.7656,8.0195c.1319.6269.418,1.0195,1.8555,1.0195a4.04,4.04,0,0,0,2.5859-.8359,3.96369,3.96369,0,0,0,1.0703-2.8213,3.04463,3.04463,0,0,0-2.1933-3.1348,11.02527,11.02527,0,0,0-3.4492-.2617C169.13089,47.2559,169.13089,51.4102,169.26169,52.167Zm2.1426-7.3145c2.0898-.3652,2.1689-2.5595,2.1689-3.082,0-2.9785-2.3779-2.9785-3.5009-2.9785-.7051,0-.8106.0264-.8369.1572-.1045.3135-.1045,5.251-.0782,6.0078A12.47947,12.47947,0,0,0,171.40429,44.8525Z" transform="translate(-3.40742 -4.2192)"/><path class="cls-3" d="M192.22269,52.167v.8105c-.0254.3916-.0254.418-.9141.8096a9.25878,9.25878,0,0,1-3.2139.9141,1.62806,1.62806,0,0,1-1.6455-1.0967,9.577,9.577,0,0,1-4.07519,1.0703c-1.69721,0-2.58491-.9658-2.58491-2.7422,0-1.5674.4961-2.0898,1.5927-2.456a25.60709,25.60709,0,0,1,5.0674-.9668c0-2.6905,0-3.3692-1.7226-3.3692-.1582,0-1.4629,0-1.4629.4698,0,.1044.0771.4443.0771.5224,0,.5225-.3135.6006-.8613.7315a9.75247,9.75247,0,0,1-1.7774.2871.46488.46488,0,0,1-.496-.4698c0-1.0712,2.6914-3.6308,5.9043-3.6308a4.6443,4.6443,0,0,1,2.665.7568,2.7171,2.7171,0,0,1,.9668,2.4297c0,.7315-.1318,3.9443-.1318,4.5977,0,1.332,0,1.6982.7587,1.6982a4.3111,4.3111,0,0,0,1.7227-.4443Zm-5.8252-1.75c0-.4697,0-.8623-.5743-.8623a5.18245,5.18245,0,0,0-2.1689.5752.88372.88372,0,0,0-.5742.9668c0,1.2012.3135,1.6972,1.4101,1.6972a5.05874,5.05874,0,0,0,1.8809-.4179Z" transform="translate(-3.40742 -4.2192)"/><path class="cls-3" d="M205.28319,44.2783a6.42933,6.42933,0,0,1,.5762,3.3955c0,2.2207,0,3.6836.0508,4.5196.0791,1.0185.3671,1.0449,1.6464,1.1494.417.0263.44341.1308.44341.5224,0,.3662-.02641.5225-.44341.5225-1.09759,0-2.1679-.0518-3.26559-.0518-1.01851,0-2.06251.0518-3.082.0518-.31451,0-.31451-.1563-.31451-.4697,0-.4707.0274-.4707.3916-.5752.7578-.1826.9424-.3653,1.0713-1.2012.0801-.627.0801-2.9004.0801-3.7363,0-1.2012,0-3.0821-2.1953-3.0821a7.01633,7.01633,0,0,0-2.32419.4698c-.15731.0527-.23641.1045-.23641.6797,0,.9668,0,4.833.0528,5.5898.0517.7061.0791,1.3066,1.4629,1.3066.3925,0,.4433.0518.4433.5225,0,.3916,0,.4961-.3652.4961-1.0186,0-2.0108-.0518-3.0303-.0518-1.6972,0-2.7939.0518-3.3965.0518-.2607,0-.2861-.1045-.2861-.4697,0-.4707.0254-.5489.5732-.627.8116-.1045,1.0987-.4707,1.1768-1.2539.0771-.5225.0771-1.7764.0771-3.6836,0-2.2207-.1035-2.7949-1.122-2.8476-.628-.0264-.7051-.0264-.7051-.5225,0-.3916.0771-.418.6797-.6533.9922-.3653,2.7685-1.0449,3.5771-1.2793a2.1398,2.1398,0,0,1,.67971-.1045c.13189,0,.36529,0,.36529.2607,0,.1826-.1299,1.4112-.15529,1.6719.78319-.4697,3.16009-1.8545,4.98919-1.8545A3.01932,3.01932,0,0,1,205.28319,44.2783Z" transform="translate(-3.40742 -4.2192)"/><path class="cls-3" d="M213.79879,49.3984a27.3705,27.3705,0,0,0,.0791,3.3174c.1299.5225.4444.5488,1.045.627.4707.0263.5214.0527.5214.5224,0,.4961-.1035.5225-.5214.5225-.4961,0-2.6651-.0518-3.1084-.0518-1.2793,0-2.5606.0518-2.9786.0518-.2617,0-.2617-.0781-.2617-.6533,0-.3389.0791-.3389.6797-.4434,1.12311-.1572,1.12311-.4971,1.1758-3.6572.0781-3.3701.0517-9.3525.0264-9.6924-.0264-1.0967-.1299-1.6455-1.3057-1.6455-.419,0-.5488,0-.5488-.3916,0-.418,0-.6006.52141-.7842a25.7046,25.7046,0,0,1,4.41609-1.2539c.2597,0,.4423.0264.4423.2354,0,.1308-.1289,1.8027-.1289,2.1425-.0537,1.6719-.0537,4.0752-.0537,7.6016v2.5078c.9668-.7314,2.0908-1.6982,3.1084-2.5605.6533-.5742.96681-.836.96681-1.0703,0-.3663-.46971-.3926-1.331-.4444-.23641-.0263-.23641-.3398-.23641-.6006,0-.3662.1827-.3662.6006-.3662.5752,0,1.9864.0528,2.7432.0528,1.0723,0,1.8809-.0528,2.5078-.0528.2891,0,.2891.1309.2891.418,0,.2353,0,.4443-.1836.4961a5.3295,5.3295,0,0,0-1.51569.6269c-1.25391.7061-2.48041,1.4893-3.68351,2.2735.5498.7051,4.4668,5.5381,5.22551,6.0078.10359.0781.65339.2353.70409.3398.0791.0782.0791.3399.0791.5743,0,.2617-.0791.3398-.3134.3398-.5489,0-2.01179-.0518-2.8477-.0518-.7305,0-2.4297.0518-2.873.0518-.2618,0-.28709-.1563-.28709-.3916,0-.5488,0-.6006.47069-.627.2597,0,.5214-.0527.5214-.2617,0-.1826-.1298-.3652-.4707-.7568l-2.9257-3.3701Z" transform="translate(-3.40742 -4.2192)"/></svg>